<svg preserveAspectRatio="none" width="100%" height="100%" overflow="visible" style="display: block;" viewBox="0 0 55.5444 24.6561" fill="none" xmlns="http://www.w3.org/2000/svg">
<path id="Vector" d="M12.6631 0.0507812C14.3602 0.0873947 15.0844 0.212418 16.5156 0.71582C18.2772 1.33548 19.6201 2.22044 21.3984 3.93457L22.582 5.0752L22.6025 5.09473L22.6289 5.08398L23.1416 4.88867C23.6586 4.69175 24.3027 4.61327 24.9443 4.64844C25.5857 4.6836 26.2219 4.83209 26.7246 5.08496C26.9555 5.20109 27.2546 5.39844 27.4961 5.58105C27.6167 5.67226 27.7222 5.75911 27.7969 5.83008C27.8342 5.86559 27.8627 5.8964 27.8818 5.9209C27.8914 5.93319 27.8985 5.94283 27.9023 5.9502C27.9006 5.95258 27.899 5.95573 27.8965 5.95898C27.8852 5.9736 27.868 5.99487 27.8447 6.02148C27.7982 6.07454 27.7293 6.14884 27.6416 6.24219C27.4663 6.42886 27.2155 6.68898 26.9141 6.99805C26.311 7.61634 25.5056 8.42988 24.6963 9.23926C23.8871 10.0485 23.0742 10.8539 22.4561 11.457C22.1472 11.7584 21.8868 12.0092 21.7002 12.1846C21.6068 12.2723 21.5316 12.3412 21.4785 12.3877C21.4521 12.4109 21.4316 12.4282 21.417 12.4395C21.4139 12.4419 21.4105 12.4436 21.4082 12.4453H21.4072C21.3999 12.4415 21.3901 12.4352 21.3779 12.4258C21.3534 12.4067 21.3226 12.3781 21.2871 12.3408C21.2161 12.2662 21.1293 12.1605 21.0381 12.04C20.8555 11.7989 20.6585 11.5002 20.542 11.2686C20.3009 10.7893 20.1541 10.1614 20.1123 9.52734C20.0706 8.89331 20.134 8.25618 20.3105 7.75781L20.4668 7.31836L20.4766 7.29199L20.4561 7.27148L19.3809 6.23242C17.7202 4.62518 16.5877 3.90881 14.9463 3.43359C9.96847 1.99265 4.91478 4.80817 3.40723 9.85937C3.29652 10.2303 3.23587 10.4638 3.20312 10.7959C3.17053 11.1265 3.16606 11.5547 3.16504 12.3154C3.16406 13.0819 3.16718 13.5086 3.19922 13.8369C3.23148 14.167 3.29258 14.3983 3.40527 14.7725C3.93582 16.5341 5.03907 18.2698 6.30762 19.3359C9.19345 21.7614 13.1748 22.2599 16.457 20.6055C17.1325 20.265 17.5235 20.0479 18.3418 19.3311C19.158 18.6161 20.4015 17.4021 22.7822 15.0664C30.2504 7.73991 34.7753 3.31897 35.1777 2.95605C36.5876 1.68527 38.88 0.584434 40.9775 0.172852C41.456 0.0789809 42.3822 0.0373678 43.3086 0.0458984C44.2349 0.0544435 45.1546 0.113305 45.6211 0.21582C48.1229 0.765606 50.1603 1.87294 51.917 3.63672C53.6493 5.3762 54.7765 7.45039 55.2881 9.83984C55.4194 10.4535 55.491 11.337 55.499 12.2178C55.507 13.0984 55.4522 13.973 55.332 14.5703C54.8202 17.1127 53.7083 19.1901 51.8691 21.04C50.1637 22.7554 48.0912 23.8754 45.6211 24.415C45.0966 24.5296 44.1476 24.5872 43.1963 24.5879C42.2449 24.5885 41.2979 24.5318 40.7773 24.418C39.3657 24.1091 38.066 23.6002 36.9375 22.915L36.2598 22.5029L36.2393 22.4902L36.2168 22.501L35.8555 22.6758C34.3854 23.3861 32.5204 23.1858 31.1689 22.1699L30.6689 21.7939L31.2383 21.2197L31.8437 20.6104L31.875 20.5791L31.8437 20.5479L30.292 18.9941L28.7705 17.4707L29.2695 16.9687C29.4142 16.8226 29.5559 16.6896 29.667 16.5937C29.7225 16.5459 29.7696 16.5074 29.8057 16.4814C29.8238 16.4684 29.8389 16.4591 29.8496 16.4531C29.851 16.4524 29.8523 16.4518 29.8535 16.4512C29.8597 16.4553 29.8683 16.4615 29.8789 16.4697C29.904 16.4891 29.9389 16.5186 29.9824 16.5566C30.0695 16.6328 30.19 16.7433 30.335 16.8799C30.6252 17.1534 31.013 17.531 31.4287 17.9463L32.9424 19.457L32.9736 19.4883L33.0049 19.457L34.9131 17.543L34.9443 17.5117L34.9131 17.4805L33.4023 15.9717C32.9872 15.5571 32.6093 15.1697 32.3359 14.8799C32.1994 14.7352 32.0888 14.6153 32.0127 14.5283C31.9746 14.4847 31.9452 14.4499 31.9258 14.4248C31.9172 14.4137 31.9114 14.4048 31.9072 14.3984C31.9079 14.3972 31.9093 14.3961 31.9102 14.3945C31.9161 14.3837 31.9255 14.3688 31.9385 14.3506C31.9645 14.3142 32.0028 14.2658 32.0508 14.21C32.1466 14.0985 32.2797 13.9571 32.4258 13.8125L32.9277 13.3145L34.4502 14.8359L36.0039 16.3867L36.0352 16.418L36.0674 16.3877L36.6768 15.7822L37.25 15.2129L37.627 15.7129C38.3713 16.7032 38.6859 17.9486 38.4932 19.1357C38.4324 19.5099 38.3749 19.8979 38.3652 19.998C38.356 20.0942 38.4132 20.1735 38.541 20.2656C38.6699 20.3585 38.885 20.4751 39.2236 20.6436C43.6833 22.8616 49.2064 20.9757 51.4531 16.4687C52.7871 13.7929 52.7871 10.838 51.4531 8.16211C50.1732 5.59451 47.7543 3.76624 44.8877 3.19727C44.5132 3.12303 43.7713 3.07733 43.0576 3.08398C41.626 3.09737 40.5236 3.34487 39.3135 3.9248C38.8997 4.12307 38.6504 4.21115 38.2959 4.44531C37.9413 4.67964 37.4795 5.06097 36.6318 5.84668C34.936 7.41853 31.6851 10.6188 24.6309 17.5312C22.5039 19.6155 20.6054 21.4595 20.4111 21.6299C18.7567 23.0804 16.5338 24.1151 14.249 24.4971C13.6664 24.5945 12.8205 24.6279 11.9785 24.6045C11.1366 24.5811 10.3018 24.5012 9.74121 24.3721C4.81987 23.2389 1.21054 19.5254 0.212891 14.5703C0.0926675 13.973 0.0369225 13.0985 0.0449219 12.2178C0.0529295 11.337 0.124509 10.4535 0.255859 9.83984C0.775748 7.41137 1.89926 5.35495 3.66992 3.59082C5.56277 1.70488 7.91435 0.517374 10.585 0.0996094C10.873 0.0546717 11.8076 0.0323047 12.6631 0.0507812Z" fill="var(--fill-0, #00E99A)" stroke="var(--stroke-0, #00E99A)" stroke-width="0.0888693"/>
</svg>
